<mxfile host="app.diagrams.net" modified="2021-01-06T10:00:01.047Z" agent="5.0 (Windows NT 10.0; Win64; x64) AppleWebKit/537.36 (KHTML, like Gecko) Chrome/87.0.4280.88 Safari/537.36" etag="IIAYMiL3Fjki290LE6Su" version="14.1.8" type="github">
  <diagram name="Page-1" id="74e2e168-ea6b-b213-b513-2b3c1d86103e">
    <mxGraphModel dx="1185" dy="635" grid="1" gridSize="10" guides="1" tooltips="1" connect="1" arrows="1" fold="1" page="1" pageScale="1" pageWidth="1100" pageHeight="850" background="#ffffff" math="0" shadow="0">
      <root>
        <mxCell id="0" />
        <mxCell id="1" parent="0" />
        <mxCell id="77e6c97f196da883-1" value="TC-Digital Lending" style="swimlane;html=1;childLayout=stackLayout;startSize=20;rounded=0;shadow=0;labelBackgroundColor=none;strokeWidth=1;fontFamily=Verdana;fontSize=8;align=center;" parent="1" vertex="1">
          <mxGeometry x="70" y="40" width="500" height="760" as="geometry" />
        </mxCell>
        <mxCell id="77e6c97f196da883-2" value="TC" style="swimlane;html=1;startSize=20;" parent="77e6c97f196da883-1" vertex="1">
          <mxGeometry y="20" width="160" height="740" as="geometry" />
        </mxCell>
        <mxCell id="77e6c97f196da883-8" value="Send application&lt;br&gt;&lt;i&gt;(*) have bank account&lt;/i&gt;" style="rounded=1;whiteSpace=wrap;html=1;shadow=0;labelBackgroundColor=none;strokeWidth=1;fontFamily=Verdana;fontSize=8;align=center;" parent="77e6c97f196da883-2" vertex="1">
          <mxGeometry x="20" y="65" width="100" height="60" as="geometry" />
        </mxCell>
        <mxCell id="77e6c97f196da883-26" style="edgeStyle=orthogonalEdgeStyle;rounded=1;html=1;labelBackgroundColor=none;startArrow=none;startFill=0;startSize=5;endArrow=classicThin;endFill=1;endSize=5;jettySize=auto;orthogonalLoop=1;strokeWidth=1;fontFamily=Verdana;fontSize=8" parent="77e6c97f196da883-1" source="77e6c97f196da883-8" target="77e6c97f196da883-11" edge="1">
          <mxGeometry relative="1" as="geometry" />
        </mxCell>
        <mxCell id="77e6c97f196da883-39" style="edgeStyle=orthogonalEdgeStyle;rounded=1;html=1;labelBackgroundColor=none;startArrow=none;startFill=0;startSize=5;endArrow=classicThin;endFill=1;endSize=5;jettySize=auto;orthogonalLoop=1;strokeWidth=1;fontFamily=Verdana;fontSize=8" parent="77e6c97f196da883-1" target="77e6c97f196da883-23" edge="1">
          <mxGeometry relative="1" as="geometry">
            <mxPoint x="600" y="690" as="sourcePoint" />
          </mxGeometry>
        </mxCell>
        <mxCell id="77e6c97f196da883-40" style="edgeStyle=orthogonalEdgeStyle;rounded=1;html=1;labelBackgroundColor=none;startArrow=none;startFill=0;startSize=5;endArrow=classicThin;endFill=1;endSize=5;jettySize=auto;orthogonalLoop=1;strokeWidth=1;fontFamily=Verdana;fontSize=8" parent="77e6c97f196da883-1" target="77e6c97f196da883-24" edge="1">
          <mxGeometry relative="1" as="geometry">
            <mxPoint x="770" y="690" as="sourcePoint" />
          </mxGeometry>
        </mxCell>
        <mxCell id="107ba76e4e335f99-1" style="edgeStyle=orthogonalEdgeStyle;rounded=1;html=1;labelBackgroundColor=none;startArrow=none;startFill=0;startSize=5;endArrow=classicThin;endFill=1;endSize=5;jettySize=auto;orthogonalLoop=1;strokeWidth=1;fontFamily=Verdana;fontSize=8" parent="77e6c97f196da883-1" target="77e6c97f196da883-18" edge="1">
          <mxGeometry relative="1" as="geometry">
            <mxPoint x="610" y="450" as="sourcePoint" />
          </mxGeometry>
        </mxCell>
        <mxCell id="107ba76e4e335f99-3" style="edgeStyle=orthogonalEdgeStyle;rounded=1;html=1;labelBackgroundColor=none;startArrow=none;startFill=0;startSize=5;endArrow=classicThin;endFill=1;endSize=5;jettySize=auto;orthogonalLoop=1;strokeColor=#000000;strokeWidth=1;fontFamily=Verdana;fontSize=8;fontColor=#000000;" parent="77e6c97f196da883-1" source="77e6c97f196da883-22" edge="1">
          <mxGeometry relative="1" as="geometry">
            <mxPoint x="610" y="610" as="targetPoint" />
          </mxGeometry>
        </mxCell>
        <mxCell id="77e6c97f196da883-3" value="SLP" style="swimlane;html=1;startSize=20;" parent="77e6c97f196da883-1" vertex="1">
          <mxGeometry x="160" y="20" width="180" height="740" as="geometry" />
        </mxCell>
        <mxCell id="77e6c97f196da883-11" value="Check credit history" style="rounded=1;whiteSpace=wrap;html=1;shadow=0;labelBackgroundColor=none;strokeWidth=1;fontFamily=Verdana;fontSize=8;align=center;" parent="77e6c97f196da883-3" vertex="1">
          <mxGeometry x="30" y="65" width="100" height="60" as="geometry" />
        </mxCell>
        <mxCell id="BkMkk-TvbLhvOdOv9HTv-4" value="" style="rhombus;whiteSpace=wrap;html=1;rounded=0;shadow=0;fontFamily=Verdana;fontSize=8;strokeWidth=1;" vertex="1" parent="77e6c97f196da883-3">
          <mxGeometry x="55" y="190" width="50" height="25" as="geometry" />
        </mxCell>
        <mxCell id="BkMkk-TvbLhvOdOv9HTv-5" value="" style="edgeStyle=orthogonalEdgeStyle;rounded=0;orthogonalLoop=1;jettySize=auto;html=1;" edge="1" parent="77e6c97f196da883-3" source="77e6c97f196da883-11" target="BkMkk-TvbLhvOdOv9HTv-4">
          <mxGeometry relative="1" as="geometry" />
        </mxCell>
        <mxCell id="BkMkk-TvbLhvOdOv9HTv-12" value="Final approval" style="whiteSpace=wrap;html=1;rounded=0;shadow=0;fontFamily=Verdana;fontSize=8;strokeWidth=1;glass=0;sketch=0;" vertex="1" parent="77e6c97f196da883-3">
          <mxGeometry x="20" y="285" width="120" height="60" as="geometry" />
        </mxCell>
        <mxCell id="77e6c97f196da883-4" value="Cux" style="swimlane;html=1;startSize=20;" parent="77e6c97f196da883-1" vertex="1">
          <mxGeometry x="340" y="20" width="160" height="740" as="geometry" />
        </mxCell>
        <mxCell id="BkMkk-TvbLhvOdOv9HTv-6" value="Online interview&lt;br&gt;&lt;i&gt;Via UW&lt;br&gt;Bot interview&lt;br&gt;Micro&amp;nbsp;expression&lt;/i&gt;" style="whiteSpace=wrap;html=1;rounded=0;shadow=0;fontFamily=Verdana;fontSize=8;strokeWidth=1;glass=0;sketch=0;" vertex="1" parent="77e6c97f196da883-4">
          <mxGeometry x="30" y="172.5" width="120" height="60" as="geometry" />
        </mxCell>
        <mxCell id="BkMkk-TvbLhvOdOv9HTv-10" value="" style="rhombus;whiteSpace=wrap;html=1;rounded=0;shadow=0;fontFamily=Verdana;fontSize=8;strokeWidth=1;glass=0;sketch=0;" vertex="1" parent="77e6c97f196da883-4">
          <mxGeometry x="65" y="302.5" width="50" height="25" as="geometry" />
        </mxCell>
        <mxCell id="BkMkk-TvbLhvOdOv9HTv-11" value="" style="edgeStyle=orthogonalEdgeStyle;rounded=0;orthogonalLoop=1;jettySize=auto;html=1;" edge="1" parent="77e6c97f196da883-4" source="BkMkk-TvbLhvOdOv9HTv-6" target="BkMkk-TvbLhvOdOv9HTv-10">
          <mxGeometry relative="1" as="geometry" />
        </mxCell>
        <mxCell id="BkMkk-TvbLhvOdOv9HTv-7" value="" style="edgeStyle=orthogonalEdgeStyle;rounded=0;orthogonalLoop=1;jettySize=auto;html=1;" edge="1" parent="77e6c97f196da883-1" source="BkMkk-TvbLhvOdOv9HTv-4" target="BkMkk-TvbLhvOdOv9HTv-6">
          <mxGeometry relative="1" as="geometry" />
        </mxCell>
        <mxCell id="BkMkk-TvbLhvOdOv9HTv-13" value="" style="edgeStyle=orthogonalEdgeStyle;rounded=0;orthogonalLoop=1;jettySize=auto;html=1;" edge="1" parent="77e6c97f196da883-1" source="BkMkk-TvbLhvOdOv9HTv-10" target="BkMkk-TvbLhvOdOv9HTv-12">
          <mxGeometry relative="1" as="geometry" />
        </mxCell>
        <mxCell id="BkMkk-TvbLhvOdOv9HTv-14" value="Disbursement" style="whiteSpace=wrap;html=1;rounded=0;shadow=0;fontFamily=Verdana;fontSize=8;strokeWidth=1;glass=0;sketch=0;" vertex="1" parent="1">
          <mxGeometry x="250" y="485" width="120" height="60" as="geometry" />
        </mxCell>
        <mxCell id="BkMkk-TvbLhvOdOv9HTv-15" value="" style="edgeStyle=orthogonalEdgeStyle;rounded=0;orthogonalLoop=1;jettySize=auto;html=1;" edge="1" parent="1" source="BkMkk-TvbLhvOdOv9HTv-12" target="BkMkk-TvbLhvOdOv9HTv-14">
          <mxGeometry relative="1" as="geometry" />
        </mxCell>
      </root>
    </mxGraphModel>
  </diagram>
</mxfile>
